<svg id="Layer_1" enable-background="new 0 0 512 512" height="512" viewBox="0 0 512 512" width="512" xmlns="http://www.w3.org/2000/svg"><g clip-rule="evenodd" fill-rule="evenodd"><circle cx="256" cy="256" fill="#46cc6b" r="240"/><path d="m495.859 248.154c.084 2.606.141 5.219.141 7.846 0 132.548-107.452 240-240 240-2.627 0-5.24-.058-7.846-.141l-117.02-117.02c-6.101-5.041-10.006-12.658-10.006-21.143 0-15.084 12.341-27.426 27.425-27.426h35.576l-53.992-53.991c-5.527-5.026-9.01-12.266-9.01-20.279 0-15.084 12.341-27.426 27.425-27.426h35.532l-54.901-54.901c-4.971-4.971-8.056-11.827-8.056-19.369 0-15.085 12.341-27.426 27.425-27.426h214.893c8.485 0 16.102 3.905 21.143 10.006z" fill="#179c5f"/><path d="m121.128 154.304c0-15.085 12.341-27.426 27.425-27.426h214.893c15.084 0 27.425 12.342 27.425 27.426s-12.341 27.426-27.425 27.426h-214.893c-15.084 0-27.425-12.341-27.425-27.426zm0 101.696c0 15.084 12.341 27.426 27.425 27.426h214.893c15.084 0 27.425-12.341 27.425-27.426 0-15.084-12.341-27.426-27.425-27.426h-214.893c-15.084.001-27.425 12.342-27.425 27.426zm0 101.696c0 15.084 12.341 27.426 27.425 27.426h214.893c15.084 0 27.425-12.341 27.425-27.425s-12.341-27.426-27.425-27.426h-214.893c-15.084 0-27.425 12.341-27.425 27.425z" fill="#fff"/></g></svg>